#!OML:ASF F:\VICON\USERDATA\INSTALL\rory3\rory3.ASF
:FULLY-SPECIFIED
:DEGREES
105
root 0.672513525917737 17.340833316916935 8.49301283849133 6.511284839611456 -2.3301083663107276 -1.2878626023387065
lfemur -23.566243834760495 9.723164679029008 -19.66246751359023
ltibia 41.543086125128156
lfoot -5.887549384233697 2.6459068131022163
ltoes -17.014680313518202
rfemur -16.908239874939788 -1.6727643025133856 18.202084607324363
rtibia 23.480064417263286
rfoot -18.78398874040984 1.2316873870505165
rtoes 8.163244733800424
lowerback 0.30042215263941086 0.12582702473773089 -0.8351138777282292
upperback 2.9034023319710434 0.1248628377546678 1.0079909369335014
thorax 3.7998480108643107 0.029950213459579475 1.0507998499493083
lowerneck -12.036281050289249 -0.1739559141782958 -2.1853778543043303
upperneck 26.792855243359444 -0.2156756398064884 1.3042012414147042
head 10.496261467887098 -0.0975950843825811 0.7943419591214125
lclavicle 1.0948423684838498e-15 -2.214154723516661e-15
lhumerus -19.489252558503864 4.994250711299118 83.2613754345861
lradius 21.383546239716175
lwrist 14.19150198934901
lhand -24.753589037986416 -7.273947956843406
lfingers 7.12502
lthumb 2.4835625760155793 24.200077448913152
rclavicle 1.0937598602147345e-15 -2.215847170136589e-15
rhumerus -27.723360244979382 -9.676258711563445 -76.55497824926064
rradius 27.81591936257504
rwrist 37.34972805033317
rhand -16.708547087123822 -26.38865153550534
rfingers 7.12502
rthumb 9.575260382145016 -55.97960041972789
106
root 0.6681255557059813 17.34258453719452 8.298234957122444 6.538175427088449 -2.282925650465616 -1.3378750688991283
lfemur -24.039003942571576 9.570081620019389 -19.68006400824203
ltibia 42.5442919075325
lfoot -6.269881258167782 2.653349406939629
ltoes -17.352074808395404
rfemur -16.37983590657282 -1.598887620734374 18.237735770778315
rtibia 23.35026604754783
rfoot -18.853776833935854 1.253572726578272
rtoes 8.376930923771893
lowerback 0.32419124670808896 0.09760266991865081 -0.904063250539766
upperback 2.813381190862135 0.11173190751118436 1.0057565952926317
thorax 3.7662308828283195 0.0280435976083718 1.0525450396980962
lowerneck -11.905176865342057 -0.15235745419689098 -2.1806573577030295
upperneck 26.519497705228407 -0.18148843317621052 1.2583947915998803
head 10.40889517726461 -0.09326462930221378 0.7880327000606615
lclavicle 1.0922909456671766e-15 -2.2172634150051543e-15
lhumerus -18.371032613912487 4.353390727495759 83.6405144992539
lradius 22.05671274037128
lwrist 15.496667166527192
lhand -24.707325903172002 -7.468690360353339
lfingers 7.12502
lthumb 2.4853981732320194 24.01050872819626
rclavicle 1.09461030868745e-15 -2.2147886017324065e-15
rhumerus -27.597008428365253 -10.3748730107523 -76.43698937728459
rradius 27.34837322297181
rwrist 37.560930241097005
rhand -16.800372856840674 -26.463619722345978
rfingers 7.12502
rthumb 9.402327721084026 -56.016104114487085
107
root 0.6608640071368039 17.34150460620137 8.348362660591542 6.5895739512166 -2.262755124688999 -1.3020413725042443
lfemur -24.59212702187284 9.35786008051989 -19.73942467925711
ltibia 43.46592508665776
lfoot -6.709471296176192 2.5559187352769563
ltoes -18.345620108468516
rfemur -15.89078502342866 -1.482630986823036 18.248533921428287
rtibia 23.365015788862493
rfoot -18.938540125939866 1.094116044899239
rtoes 8.359256217550987
lowerback 0.29411147867365484 0.07176121192993659 -0.9860515409068336
upperback 2.7123701806446454 0.09526578064672611 1.000805749511986
thorax 3.563372997701589 0.027689831322678618 1.0725522394189473
lowerneck -11.798430041208277 -0.1526805785409604 -2.1803985509993753
upperneck 26.347477351070953 -0.14836649592239812 1.243644287197003
head 10.39920411227024 -0.08138020842531743 0.7879732036861737
lclavicle 1.0925837856668024e-15 -2.2169051171337777e-15
lhumerus -17.857888608830983 3.0762030702244614 83.99011001964953
lradius 23.01934757121984
lwrist 17.545137482447945
lhand -24.77091468839732 -7.5342608293069935
lfingers 7.12502
lthumb 2.271276021888166 23.637697654765457
rclavicle 1.0942713064320648e-15 -2.215207213566976e-15
rhumerus -27.343515065038257 -10.759888412811737 -76.4916174721499
rradius 27.21744551154757
rwrist 37.52647562603463
rhand -16.942229674083094 -26.54034325517719
rfingers 7.12502
rthumb 9.239662905226803 -56.035994582374116
108
root 0.6542900778190422 17.31680818245783 8.264115663593028 6.420526197706168 -2.1759088245584923 -1.2851539776081442
lfemur -25.01709300242299 9.153381113964002 -19.7419166679843
ltibia 44.086903213020776
lfoot -7.093685376901322 2.5186750194723166
ltoes -18.894098828115542
rfemur -15.340820920858565 -1.5914494681425233 18.265039978566687
rtibia 23.191931024987053
rfoot -18.81643247785395 0.9486214063791389
rtoes 8.447672861284639
lowerback 0.25097524681201056 0.021079198159740437 -1.0090872189885378
upperback 2.6470619365233987 0.01064154502289913 1.0358950484599672
thorax 3.3643387631018333 -0.005219981276481003 1.1426630057445144
lowerneck -11.854013071324951 -0.1647183400610367 -2.196886933560785
upperneck 26.2420727290916 -0.15983575539675768 1.2721300932798134
head 10.346246038645841 -0.0870470283876931 0.807334445653407
lclavicle 1.0920767530613037e-15 -2.217619244937373e-15
lhumerus -17.956513959558933 1.5110026662599632 84.26003558563059
lradius 24.102229400530252
lwrist 19.528264113765
lhand -24.730628917634643 -7.508432601297812
lfingers 7.12502
lthumb 2.0357331253004514 23.334189069932965
rclavicle 1.0936460831608462e-15 -2.215985042594594e-15
rhumerus -27.026002966162146 -10.627360304108777 -76.62321373717421
rradius 27.432212138380237
rwrist 37.15316686359682
rhand -17.10080403817256 -26.570658132379226
rfingers 7.12502
rthumb 9.07282033367911 -56.05376004302732
109
root 0.6476749353931959 17.31792780052206 8.113573761669468 6.353341051910956 -2.092806139421405 -1.2728720563596867
lfemur -25.316094295022033 8.986778046651487 -19.686675587997744
ltibia 44.64412524418064
lfoot -7.4776846947021305 2.5435470011564116
ltoes -18.955950312990446
rfemur -15.048194061592596 -1.7995779831345415 18.2759223553655
rtibia 23.01857746684418
rfoot -18.551487879866357 0.8849154704673143
rtoes 8.528488694721826
lowerback 0.39380618362065106 -0.012068171838186155 -0.9703140175216036
upperback 2.593634511547219 -0.06895959783281647 1.0668072769326242
thorax 3.2655951285924907 -0.04850035450749213 1.1965670376361293
lowerneck -12.050696049099377 -0.18184827856187782 -2.2029144225717108
upperneck 26.165582776591204 -0.17741634676834503 1.2974952487203322
head 10.345736168611108 -0.087950337569254 0.822723579056611
lclavicle 1.0923998343612899e-15 -2.217209285740183e-15
lhumerus -18.4809676881167 -0.2663181404778068 84.37229364315266
lradius 25.124743852840375
lwrist 21.095716363676402
lhand -24.654052596480366 -7.499687930499084
lfingers 7.12502
lthumb 1.86570327138344 23.191944667031663
rclavicle 1.093049896414505e-15 -2.2167217567068417e-15
rhumerus -26.60299926381738 -10.009461259410486 -76.82234040625497
rradius 28.001271989524554
rwrist 36.42344646471826
rhand -17.347025984244176 -26.61381031296851
rfingers 7.12502
rthumb 8.845019768976863 -56.12544688151244
110
root 0.6416991859144324 17.32904747015766 8.017599681862015 6.4349124419692565 -2.0311436180975067 -1.2397306633919618
lfemur -25.608875873998652 8.866444043855923 -19.674949386714797
ltibia 44.936859139331645
lfoot -7.728088730662948 2.520352806178543
ltoes -19.09237715393283
rfemur -14.87573355527499 -2.0592874325531696 18.313685636555604
rtibia 22.85656309729969
rfoot -18.250387448168667 0.9186268922684371
rtoes 8.738390229170218
lowerback 0.5754443741683263 -0.02290653123077602 -0.9912231771079711
upperback 2.629706482446161 -0.1111263809635269 1.1117163306816555
thorax 3.2917233153920353 -0.07393589839010235 1.2728925245634408
lowerneck -12.227611708780609 -0.21637816506213947 -2.2112766201364447
upperneck 26.187949886212404 -0.21717865361530256 1.3269235901529577
head 10.353047659951452 -0.10519564016468147 0.8321244564907974
lclavicle 1.0940594189368884e-15 -2.215167133668475e-15
lhumerus -19.39526577281369 -2.089106077746214 84.34251701017949
lradius 25.865599884204293
lwrist 22.187599024429037
lhand -24.404462441079687 -7.3507702613451285
lfingers 7.12502
lthumb 1.8746423687008966 23.22439145225868
rclavicle 1.0928040885670056e-15 -2.2170262429300404e-15
rhumerus -26.352026745763098 -9.33673658264707 -77.01273445193426
rradius 28.846375442534896
rwrist 35.435537813913875
rhand -17.670371877061058 -26.656541699832697
rfingers 7.12502
rthumb 8.570503349440783 -56.200459377882346
111
root 0.6356213013940266 17.309526136074872 7.9094359427854934 6.2346538215297755 -1.9036899216120349 -1.205053424918578
lfemur -25.813741131365397 8.750683152800347 -19.66688775984642
ltibia 44.78368746798036
lfoot -7.829006151577834 2.5244548054491642
ltoes -19.164494512573444
rfemur -14.75927086744171 -2.3534410738016707 18.33557234997821
rtibia 22.84323269701452
rfoot -18.031704136530823 0.9256229072184259
rtoes 8.843902001032564
lowerback 0.7860139874823934 -0.01560197216439933 -1.0456854077109066
upperback 2.761178663103249 -0.11695820885044732 1.1624782306952908
thorax 3.3652118205422257 -0.08469011706666303 1.353300092386622
lowerneck -12.315453263497764 -0.2524512184471715 -2.2325679486978047
upperneck 26.28186713305947 -0.28216001899218723 1.3688738344092093
head 10.351352399128572 -0.13284443023502845 0.846557561788
lclavicle 1.0939816748640077e-15 -2.2152436766824717e-15
lhumerus -20.22388012859169 -3.2704106739944883 84.14658083666393
lradius 26.16162954472724
lwrist 22.663393172946744
lhand -24.124981047524297 -7.149889504255269
lfingers 7.12502
lthumb 1.9432096606480433 23.328852970404593
rclavicle 1.0933244744785834e-15 -2.2163789585408993e-15
rhumerus -26.35362691277437 -8.867298932967655 -77.10721722327281
rradius 29.53539828384998
rwrist 34.67581049195857
rhand -17.984314555584568 -26.703491295414207
rfingers 7.12502
rthumb 8.31996219395687 -56.268017925439224
112
root 0.6305971728744836 17.321930636697026 7.766002091270418 6.162620333421457 -1.7794384042808702 -1.1716776126203445
lfemur -25.856985998244998 8.661323056159086 -19.680454884275882
ltibia 44.25709953820454
lfoot -7.894716485805122 2.537162392548818
ltoes -19.539391856186946
rfemur -14.573379531382455 -2.536924963395096 18.339729474756876
rtibia 22.828556849006922
rfoot -17.956358780485182 0.8824421306935202
rtoes 8.932644853575972
lowerback 1.0680124152624315 -0.02225215903133599 -1.0471442348889528
upperback 2.9924238648883716 -0.11295034988785792 1.2078929020005322
thorax 3.380314477945513 -0.09868531028799879 1.386417509841622
lowerneck -12.350863075972153 -0.2944059581722457 -2.2430389267294193
upperneck 26.32446108079087 -0.35215014054343274 1.3750210711732065
head 10.362051620733448 -0.16151511074386296 0.8497671223477198
lclavicle 1.094199333036004e-15 -2.214903004774179e-15
lhumerus -20.87517828975309 -4.202632097929648 83.97844628004793
lradius 25.90980464164853
lwrist 22.224001926028325
lhand -23.957994389894736 -7.017117508961749
lfingers 7.12502
lthumb 1.9129039815234319 23.28212481419973
rclavicle 1.0936646686388306e-15 -2.2159552427995694e-15
rhumerus -26.490469654619858 -8.61033533073704 -77.16193848855308
rradius 29.89505332261742
rwrist 34.253257985017875
rhand -18.254018588167547 -26.73863047750871
rfingers 7.12502
rthumb 8.11790168397906 -56.342043933235004
